<svg xmlns="http://www.w3.org/2000/svg" viewBox="0 0 47.91 12.17"><defs><style>.cls-1{fill:#b3b3b3;}</style></defs><g id="Livello_2" data-name="Livello 2"><g id="Layer_1" data-name="Layer 1"><path class="cls-1" d="M5.37,12.17H8l.27-1.24H9.45v1.24h2.63V3.59H7.25ZM9.45,5.68v3H8.63ZM3.53,9.51H5.34l-.57,2.63H0L1.93,3.59h3ZM19.8,3.59l-1.9,8.55H13.07V3.59h2.66V9.66l1.36-6.07ZM46,3.59h-4.8v8.55H43.8V10.9H45l.27,1.24h2.6ZM43.8,8.72v-3l.79,3Zm-3.41.91.52,2.54H35.68l.55-5.83H34.42l-.49-2.72h5.5l-.64,6Zm-5.94,0L35,12.17H29.74l.54-5.83H28.47L28,3.62h5.5l-.63,6ZM21.62,0,18.87,12.17h3.38l.39-2.09H25.3l.39,2.09H29L26.29,0Zm1.44,7.4.88-4.65.91,4.65Z"/></g></g></svg>