<svg xmlns="http://www.w3.org/2000/svg" viewBox="0 0 53.55 25.38"><defs><style>.cls-1{fill:#b3b3b3;}</style></defs><g id="Livello_2" data-name="Livello 2"><g id="Layer_1" data-name="Layer 1"><g id="g772"><path id="path774" class="cls-1" d="M25.91,20.07v.72a2.19,2.19,0,0,1-2.43,2c-.92,0-1.86-.5-1.86-1.47v0c0-.92.81-1.49,2.12-1.49a8.29,8.29,0,0,1,2.17.29M23.83,16.6a5.27,5.27,0,0,0-2.32.57h0l.25.58h0a4.41,4.41,0,0,1,2-.52,1.84,1.84,0,0,1,2.11,2v.25a7.51,7.51,0,0,0-2.13-.28c-1.76,0-2.85.82-2.85,2.14v0a1.85,1.85,0,0,0,.8,1.54,3,3,0,0,0,1.72.52A3,3,0,0,0,25.9,22.2v1h.66V19.17a2.42,2.42,0,0,0-2.73-2.57"/></g><g id="g776"><path id="path778" class="cls-1" d="M32.92,21.69a2.84,2.84,0,0,1-2.15,1.07A2.69,2.69,0,0,1,28.12,20v0a2.66,2.66,0,0,1,2.6-2.77,2.88,2.88,0,0,1,2.14,1.07h0l.47-.49h0a3.46,3.46,0,0,0-2.61-1.21A3.38,3.38,0,0,0,27.4,20v0a3.35,3.35,0,0,0,6,2.1l0,0-.47-.41Z"/></g><g id="g780"><path id="path782" class="cls-1" d="M35.58,14.63h-.66v2.08H34v.61h1v4.23a1.67,1.67,0,0,0,1.84,1.8,2.41,2.41,0,0,0,1.06-.23h0v-.63h0a2.06,2.06,0,0,1-.94.23c-.85,0-1.28-.41-1.28-1.23V17.32h2.28v-.61H35.58Z"/></g><path id="path784" class="cls-1" d="M39.16,23.24h.67V16.71h-.67Z"/><path id="path786" class="cls-1" d="M39.09,15.06h.82v-.9h-.82Z"/><g id="g788"><path id="path790" class="cls-1" d="M46.71,16.71l-2.46,5.75-2.44-5.74H41L44,23.27v0h.57l2.92-6.55v0Z"/></g><g id="g792"><path id="path794" class="cls-1" d="M52.83,19.64H48.16a2.5,2.5,0,0,1,2.37-2.47,2.39,2.39,0,0,1,2.3,2.47m-2.27-3.09A3.23,3.23,0,0,0,47.46,20v0a3.5,3.5,0,0,0,.95,2.47,3.11,3.11,0,0,0,2.25.94,3.42,3.42,0,0,0,2.7-1.23v0l-.46-.41,0,0a2.86,2.86,0,0,1-2.21,1,2.54,2.54,0,0,1-2.52-2.51h5.38v0a1.85,1.85,0,0,0,0-.23v0c0-2-1.23-3.42-3-3.42"/></g><path class="cls-1" d="M28.43,9.72a1.63,1.63,0,0,1-1.09,1c-.55.21-1.12.36-1.67.56-.18.06-.34.18-.52.25-.57.25-1.12.55-1.67.84s-1.15.59-1.71.93-1,.55-1.43.84-1.06.64-1.57,1l-1,.64-.23.18-.27.2c0,.23,0,.5,0,.77,0,0,0,0,0,0s.08.19.05.21,0,.23-.05.34a1.2,1.2,0,0,0,0,.38,2.06,2.06,0,0,1,0,.43c0,.1.1.17,0,.29s0,.25,0,.38v.74c0,.12,0,.23,0,.35a.83.83,0,0,1-.07.18.83.83,0,0,1,0,.72l.15.28-.14.1c.12.15,0,.31.06.46s0,.26.08.39,0,.24.07.36,0,.18-.05.28a2.55,2.55,0,0,1,.14.24,2,2,0,0,1,.06.32l-.15.29.27.19-.11.35.17.21a3.53,3.53,0,0,1-.17.49,2.24,2.24,0,0,1-.32.37c-.06.05-.2-.06-.21.09h-.39s0-.08-.06-.08a.53.53,0,0,1-.42-.21,1.06,1.06,0,0,1-.21-.53c-.05-.19,0-.39-.08-.59s.06-.26.07-.39c0-.31,0-.62,0-.93a4.34,4.34,0,0,0,0-.51c0-.13.09-.26,0-.39.12-.11-.09-.17,0-.3s.16-.19.08-.3a.3.3,0,0,1,0-.38.16.16,0,0,0,0-.15c-.09-.15,0-.29,0-.44v-3a.15.15,0,0,0,0-.07,3.89,3.89,0,0,0-.84.57,9.71,9.71,0,0,1-.88.67,3.06,3.06,0,0,0-.49.4c-.37.31-.72.63-1.09.93s-.54.45-.82.65-.37.41-.64.51c-.11,0-.09.23-.24.24-.28.43-.77.66-1.06,1.07-.11.15-.28.24-.37.42s-.28.27-.4.42-.31.22-.42.4a3.39,3.39,0,0,1-.46.47l-.44.44-.37.32H7l-.4-.2L6.37,24v-.39a7.72,7.72,0,0,1,.76-.88c.47-.42.89-.88,1.36-1.29s.73-.66,1.12-1,.66-.53,1-.82.71-.55,1.06-.83.57-.48.87-.71.66-.51,1-.73.49-.38.74-.56c.47-.31.87-.71,1.37-1a1.87,1.87,0,0,0,.34-.29V14.8l-.44.34h-.21l-.14.14a3.16,3.16,0,0,1-1,.08.93.93,0,0,1-.63-.47l-.15-.3c0-.62,0-1.29,0-2a4.57,4.57,0,0,1,.37-1.74,3,3,0,0,1,1-1.24,1.38,1.38,0,0,1,.82-.26l.19.26a2.48,2.48,0,0,1-.09.42.5.5,0,0,1-.28.34,5.07,5.07,0,0,0-.57,1.2,2.79,2.79,0,0,0-.07.4,1,1,0,0,0,.06.29.14.14,0,0,0-.06.07,6.38,6.38,0,0,0-.09,1A.86.86,0,0,0,15,14a.91.91,0,0,0,.66-.28A.88.88,0,0,0,16,13c0-.27.07-.55.1-.81s0-.56.07-.83,0-.58.08-.86a5.39,5.39,0,0,0,.07-1,3.1,3.1,0,0,1,.1-.45c.39-.42.39-.42.94-.41.2,0,.22.25.37.36-.11.13-.06.27,0,.42s0,.11,0,.14c-.12.21-.05.44-.07.66s-.06.4-.08.59a2.23,2.23,0,0,1,0,.58,5.07,5.07,0,0,0-.07.86A10.51,10.51,0,0,0,17.38,14c0,.06-.06.11-.06.17a1.3,1.3,0,0,0,0,.26l-.06.2.07,0L18.44,14l1.11-.69c.42-.26.87-.46,1.29-.72l1.22-.72c.28-.17.58-.33.88-.49s.72-.38,1.06-.61a1.28,1.28,0,0,1,.27-.11c-.1-.15-.26-.29-.27-.45s-.23-.34,0-.5c0-.06-.07-.13-.05-.17A2.11,2.11,0,0,0,24,8.71c0-.55.07-1.11.1-1.68l-.26-.2a.62.62,0,0,0-.6.26,2.05,2.05,0,0,0-.32.34,1.11,1.11,0,0,0-.24.79.48.48,0,0,1,0,.12l-.14.15s.07.1.06.14a.49.49,0,0,1-.08.23c-.05.1.13.14,0,.23l0,0,.07.08-.13.13c.09.19-.17.42.07.57-.05.12-.18.22,0,.31a1.13,1.13,0,0,0-.08.24c0,.07,0,.14,0,.23-.19.3-.33.69-.76.8h-.5l-.12-.21-.06,0a8.52,8.52,0,0,1,0-1.43,17.15,17.15,0,0,0,.06-1.75c0-.17.06-.34.08-.51a1.59,1.59,0,0,1,.07-.48.94.94,0,0,1,.92-.7c.09,0,.2,0,.29-.06s.13,0,.2,0a.37.37,0,0,0,.35,0,2.69,2.69,0,0,0,.37-.3,2,2,0,0,1,1-.67c.18-.05.35,0,.53-.05l.4.32.15.68-.15.09a.67.67,0,0,1,.1.45,1.29,1.29,0,0,0,.05.24l-.11,0c0,.06.07.14.05.18a2,2,0,0,0,0,.9c0,.09,0,.18,0,.27s0,.23-.07.31c.09.07,0,.18.05.25l-.08.1.18.2v.23l.25.19a1.68,1.68,0,0,0,.36-.12,9,9,0,0,0,1-.54A.85.85,0,0,1,27.51,9c.2,0,.41,0,.63,0s.21.19.28.34A.46.46,0,0,1,28.43,9.72ZM6.13,15.54a3.17,3.17,0,0,0,.16-1.06c.14-.11.06-.3.14-.45s0-.32,0-.49l.16-.15a2.79,2.79,0,0,1,.12-.9c.07-.31.1-.63.19-.93a4.53,4.53,0,0,1,.3-.85,3.9,3.9,0,0,1,.4-.82,2,2,0,0,1,.14-1A6.78,6.78,0,0,0,8,8.24,4.54,4.54,0,0,1,8.3,7.17c0-.41.32-.71.34-1.1a9.4,9.4,0,0,0,.39-1,18.75,18.75,0,0,1,.82-1.76,5.77,5.77,0,0,1,.66-.88,5.43,5.43,0,0,0,.59-.68A1.09,1.09,0,0,0,11.21.61C11,.26,11,.25,10.6.06s-.48,0-.68-.06A1.45,1.45,0,0,0,9.7.12a3.24,3.24,0,0,0-1,1.55c-.14.43-.31.86-.46,1.28s-.38,1-.54,1.45a10.85,10.85,0,0,0-.48,1.39C7,6.11,7,6.54,6.77,6.85c0,0,0,.1,0,.15a9.28,9.28,0,0,0-.22.91,9.79,9.79,0,0,0-.41,1.5,3.31,3.31,0,0,1-.22.76,6,6,0,0,0-.22.8c-.07.34-.18.66-.24,1L5.2,13.3c0,.15,0,.32-.09.47a4.11,4.11,0,0,1-.08.54c-.07.14,0,.3-.08.4s0,.27-.06.4,0,.1,0,.15a5.51,5.51,0,0,0-.21,1.34c0,.22-.1.41-.13.68a2,2,0,0,1-.11-.41A7.52,7.52,0,0,1,4.34,16a1.26,1.26,0,0,0-.13-.42.37.37,0,0,0,.06-.14,1.59,1.59,0,0,0-.15-.71c.09-.13,0-.26,0-.4A1.08,1.08,0,0,0,4,13.94c0-.14-.1-.27-.15-.41a3,3,0,0,1-.14-.79c0-.15-.15-.3,0-.46-.11-.1,0-.23-.06-.33a.83.83,0,0,1-.07-.32c0-.09-.06-.18-.07-.28a2.83,2.83,0,0,0,0-.3,4.36,4.36,0,0,1-.14-.72c-.06-.26-.09-.53-.16-.78a.44.44,0,0,0-.2-.3c-.19-.09-.38-.24-.6-.16a1.15,1.15,0,0,1-.24.13c-.21,0-.28.23-.35.39s-.15.51-.24.76c-.25.68-.43,1.39-.68,2.08a2.39,2.39,0,0,1-.15.37c-.06.1,0,.24-.1.35a.68.68,0,0,0-.14.36c0,.17-.14.29-.16.44a2,2,0,0,1-.14.48A3.88,3.88,0,0,0,0,14.9H0v.39l.37.31H.61a.59.59,0,0,0,.6-.4c.07-.16.12-.34.19-.5a2,2,0,0,0,.15-.29,3.77,3.77,0,0,1,.23-.72A1.79,1.79,0,0,1,2.09,13s0-.1,0-.15,0,0,0,0H2.3a.73.73,0,0,1,.11.43.26.26,0,0,0,0,.15,3.17,3.17,0,0,1,.22.8,4.82,4.82,0,0,1,.09.86s0,.09,0,.11,0,.27.07.4.06.26.08.39a3.57,3.57,0,0,0,.09.74c.07.19,0,.38.07.55a5.64,5.64,0,0,1,.15,1c0,.05,0,.12,0,.14s0,.22,0,.33.06.24.08.36,0,.31.05.48l-.05.06s.06,0,.06.06.11.23.08.31.17.22,0,.33a2.42,2.42,0,0,1,.21.91c.08.46.18.91.25,1.3l.33.36c.31.09.5-.1.7-.19l.21-.4c0-.09,0-.26,0-.34s0-.31.08-.44a1.1,1.1,0,0,0,.07-.44.38.38,0,0,1,0-.15,2.89,2.89,0,0,0,.14-.83c.06-.32.06-.65.09-1,0,0,0,0,0,0s.06-.29.08-.44.06-.31.07-.47a.94.94,0,0,1,.24-.6,1.28,1.28,0,0,1-.07-.67c.14-.34.32-.55.17-.85a.28.28,0,0,1,0-.25C6.14,15.71,6.12,15.63,6.13,15.54ZM10.39,12a3,3,0,0,0-.07.51c0,.09,0,.17,0,.28l0,0a.89.89,0,0,0-.07.28,4.61,4.61,0,0,1-.08,1.17c0,.1.05.23-.07.32.11.1,0,.18,0,.28a.22.22,0,0,0,0,.25s0,.1,0,.1,0,.15-.05.23,0,.17,0,.26,0,.2,0,.31a.65.65,0,0,0,.29.64,1.2,1.2,0,0,0,1.19-.85c-.1-.25.15-.52,0-.8.09-.17.09-.17.09-.3s0-.54,0-.81a3.85,3.85,0,0,1,.16-.75,1.35,1.35,0,0,1,.54-.84c.19-.16.39-.3.58-.47s.09-.32.16-.47,0,0,0-.06l-.3-.47h-.28l-.85.37a2.2,2.2,0,0,0-.57.1C10.8,11.48,10.48,11.61,10.39,12ZM9.23,13.49a.26.26,0,0,0,0-.15c0-.1-.11-.17,0-.31s0-.22,0-.33l0,0L9,12.48a1.62,1.62,0,0,0-.41,0,1.39,1.39,0,0,0-.87,1.09c-.06.37-.06.75-.09,1.13a1.71,1.71,0,0,1-.06.63,1.93,1.93,0,0,0,0,.54c0,.18-.07.36-.08.54,0,.39,0,.78,0,1.17,0,.14,0,.28.06.4a.54.54,0,0,0,.66,0c.23-.12.33-.38.6-.43a1.54,1.54,0,0,1,.08-.68A7.2,7.2,0,0,1,9,15.4a3.07,3.07,0,0,0,.09-1,.25.25,0,0,1,0-.15c.13-.1.06-.24.08-.36S9.21,13.62,9.23,13.49Zm9.6-.76c.89-.35.83-.35,1.11-1,0-.09-.06-.17-.07-.25a1.32,1.32,0,0,1,.07-.59c.06-.13.15-.26,0-.4s0-.11,0-.15A1.77,1.77,0,0,0,20,9.52c0-.24,0-.47,0-.7a3.72,3.72,0,0,0,.08-.67c0-.05.05-.11.06-.14L20,7.53h-.44a1.11,1.11,0,0,0-.65.78c-.05.24-.08.49-.11.73s0,.26,0,.35a.9.9,0,0,0-.06.51,4.17,4.17,0,0,1-.08.51c0,.43-.06.86-.08,1.29a.4.4,0,0,1,0,.11c-.15.22-.05.44-.09.67Zm-9-2.86s0,0,0,0l-.16-.44H9.59l0,0a1.15,1.15,0,0,0-.64.23,2,2,0,0,0-.42.44,1,1,0,0,0-.1.65l.18.19H9l.09-.08.12-.07C9.64,10.39,9.65,10.39,9.81,9.87Zm9.58-3.8.11.21H20a1.37,1.37,0,0,0,.74-1.09L20.53,5H20a1.29,1.29,0,0,0-.72.87l.07.27Z"/></g></g></svg>