<svg xmlns="http://www.w3.org/2000/svg" viewBox="0 0 63.66 12.73"><defs><style>.cls-1{fill:#b3b3b3;}</style></defs><g id="Livello_2" data-name="Livello 2"><g id="Layer_1" data-name="Layer 1"><path class="cls-1" d="M53.71,2v8.8h4.34a3.43,3.43,0,0,0,2.42-.64c.64-.57,1-1.59,1-3.76s-.32-3.19-1-3.76A3.43,3.43,0,0,0,58.05,2Zm5.93,4.4c0,1.91-.13,2.36-.51,2.61a1.82,1.82,0,0,1-1.21.26H55.5V3.44h2.42c.64,0,1,0,1.21.26S59.64,4.47,59.64,6.38Zm4,6.35H50.93V0H63.66ZM40.54,3.44V2h7.52v2.8H46.47V3.44H43.41V5.55h2.42V7H43.41V9.31h3.12V7.78h1.6v3H40.54V9.31h1.21V3.44Zm-6.83,5a11,11,0,0,0,.19,2.24h1.73a17.13,17.13,0,0,1-.13-2.36c-.07-1.28-.45-1.47-1.34-1.66,1-.19,1.47-.64,1.47-2.23,0-1.28-.2-1.79-.58-2.11A2,2,0,0,0,33.65,2H28.29v8.8h1.79V7.34h2.48a1.42,1.42,0,0,1,.9.19C33.65,7.65,33.71,7.85,33.71,8.48ZM30.08,5.93V3.51H33c.38,0,.51.06.57.13s.26.31.26,1.08-.13,1-.26,1.15S33.33,6,33,6Zm8.1,6.8H25.42V0H38.15V12.73ZM22.1,9.31v1.47H16V9.31h2.17V3.44H16V2H22.1V3.44H19.93V9.31ZM11.86,2H10.21L9,8.93,7.59,2.49C7.53,2,7.34,2,7,2H6.06a.55.55,0,0,0-.64.51L4,8.93,2.81,2H1l1.72,8.35c.07.39.19.45.64.45H4.59c.39,0,.51-.06.64-.45L6.57,4.27l1.34,6.06c.06.39.19.45.64.45H9.7c.38,0,.57-.06.63-.45Zm.9,10.75H0V0H12.73V12.73Z"/></g></g></svg>