<svg width="892" height="246" viewBox="0 0 892 246" fill="none" xmlns="http://www.w3.org/2000/svg">
<path d="M370.123 105.432H340.645C340.645 98.7788 337.051 95.525 329.426 95.525C322.773 95.525 318.791 98.0018 318.791 102.373C318.791 106.938 321.462 108.832 330.786 110.92L338.605 112.619C363.13 117.962 371.92 126.703 371.92 142.68C371.92 163.029 355.942 175.218 330.64 175.218C303.056 175.218 287.273 163.223 285.913 141.175H316.363C316.363 148.994 320.928 153.365 329.863 153.365C337.682 153.365 342.053 150.499 342.053 145.157C342.053 140.398 339.188 137.727 331.029 136.221L321.705 134.328C298.88 129.763 289.555 120.438 289.555 104.461C289.555 95.1365 293.343 87.512 300.774 82.0243C308.204 76.2937 317.917 73.4771 329.912 73.4771C353.562 73.4771 368.569 85.0838 370.123 105.432Z" fill="white"/>
<path d="M387.896 213.147V75.9538H415.48V89.8431C423.104 79.2076 434.517 73.4771 448.018 73.4771C461.518 73.4771 472.397 78.2363 480.944 87.7548C489.491 97.0791 493.716 109.269 493.716 124.081C493.716 139.135 489.345 151.276 480.798 160.989C472.251 170.508 461.178 175.267 447.678 175.267C434.905 175.267 424.464 170.702 416.84 161.572V213.147H387.896ZM439.665 99.7501C425.775 99.7501 416.063 110.046 416.063 124.469C416.063 138.941 425.775 149.188 439.665 149.188C453.554 149.188 463.461 138.893 463.461 124.469C463.461 109.997 453.554 99.7501 439.665 99.7501Z" fill="white"/>
<path d="M509.891 31.8076H538.835V172.837H509.891V31.8076Z" fill="white"/>
<path d="M567.679 161.23C559.131 151.712 554.906 139.522 554.906 124.904C554.906 109.85 559.277 97.7087 567.824 87.9959C576.371 78.2832 587.444 73.5239 600.945 73.5239C614.445 73.5239 625.664 79.0602 633.483 89.5014V76.0007H660.678V172.837H633.483V158.753C625.664 169.583 614.251 175.314 600.75 175.314C587.298 175.265 576.274 170.554 567.679 161.23ZM609.152 149.235C623.041 149.235 632.754 138.745 632.754 124.516C632.754 110.044 623.041 99.7969 609.152 99.7969C594.874 99.7969 585.162 110.092 585.162 124.516C585.21 138.745 594.923 149.235 609.152 149.235Z" fill="white"/>
<path d="M762.858 85.2769C772.182 93.0957 777.718 103.343 779.418 115.921H750.668C747.803 106.208 739.644 100.137 728.96 100.137C715.071 100.137 705.358 110.239 705.358 124.516C705.358 138.406 715.071 148.701 728.96 148.701C739.596 148.701 747.997 142.631 750.863 132.724H779.418C777.718 145.302 772.182 155.549 762.858 163.562C753.534 171.381 742.315 175.363 729.009 175.363C713.614 175.363 701.036 170.604 691.129 160.891C681.416 151.178 676.463 138.988 676.463 124.371C676.463 109.705 681.416 97.7092 691.129 88.045C701.036 78.3323 713.566 73.573 729.009 73.573C742.267 73.4759 753.534 77.4581 762.858 85.2769Z" fill="white"/>
<path d="M861.149 141.416H889.122C883.052 162.735 864.937 175.265 840.024 175.265C824.969 175.265 812.828 170.505 803.116 160.793C793.403 151.08 788.644 139.085 788.644 124.467C788.644 110.189 793.597 97.9996 803.504 88.2868C813.411 78.3798 825.795 73.4263 840.413 73.4263C855.467 73.4263 867.608 77.9913 876.933 87.3155C886.257 96.6398 891.016 108.441 891.016 122.913V131.654H816.228C818.705 144.427 827.64 152.003 840.413 152.003C850.32 152.051 856.779 148.846 861.149 141.416ZM817.588 112.666H863.043C859.984 102.759 851.825 96.8826 840.413 96.8826C829.583 96.8826 821.181 102.807 817.588 112.666Z" fill="white"/>
<path d="M183.391 31.178C141.82 -10.3927 73.7825 -10.3927 32.1633 31.178C-9.40731 72.7486 -9.40731 140.835 32.1633 182.406L87.1861 237.477C98.55 248.841 117.004 248.841 128.368 237.477L183.391 182.454C225.01 140.835 225.01 72.7971 183.391 31.178Z" fill="#72FDC1"/>
<path d="M132.979 54.8789C137.216 54.8789 140.652 51.4435 140.652 47.2058C140.652 42.9681 137.216 39.5327 132.979 39.5327C128.741 39.5327 125.306 42.9681 125.306 47.2058C125.306 51.4435 128.741 54.8789 132.979 54.8789Z" fill="#61CE9D"/>
<path d="M132.154 55.8017C136.419 55.8017 139.876 52.3446 139.876 48.08C139.876 43.8155 136.419 40.3584 132.154 40.3584C127.89 40.3584 124.433 43.8155 124.433 48.08C124.433 52.3446 127.89 55.8017 132.154 55.8017Z" fill="#61CD9C"/>
<path d="M131.281 56.7748C135.599 56.7748 139.099 53.2742 139.099 48.956C139.099 44.6378 135.599 41.1372 131.281 41.1372C126.963 41.1372 123.462 44.6378 123.462 48.956C123.462 53.2742 126.963 56.7748 131.281 56.7748Z" fill="#60CC9C"/>
<path d="M130.455 57.7439C134.827 57.7439 138.371 54.1998 138.371 49.828C138.371 45.4562 134.827 41.9121 130.455 41.9121C126.083 41.9121 122.539 45.4562 122.539 49.828C122.539 54.1998 126.083 57.7439 130.455 57.7439Z" fill="#60CB9B"/>
<path d="M129.632 58.717C134.058 58.717 137.645 55.1294 137.645 50.7039C137.645 46.2785 134.058 42.6909 129.632 42.6909C125.207 42.6909 121.619 46.2785 121.619 50.7039C121.619 55.1294 125.207 58.717 129.632 58.717Z" fill="#5FCA9A"/>
<path d="M128.802 59.6861C133.281 59.6861 136.912 56.0551 136.912 51.576C136.912 47.0969 133.281 43.4658 128.802 43.4658C124.322 43.4658 120.691 47.0969 120.691 51.576C120.691 56.0551 124.322 59.6861 128.802 59.6861Z" fill="#5FC999"/>
<path d="M127.976 60.6587C132.509 60.6587 136.183 56.9842 136.183 52.4514C136.183 47.9187 132.509 44.2441 127.976 44.2441C123.443 44.2441 119.769 47.9187 119.769 52.4514C119.769 56.9842 123.443 60.6587 127.976 60.6587Z" fill="#5FC899"/>
<path d="M127.104 61.5815C131.664 61.5815 135.36 57.8853 135.36 53.3257C135.36 48.7661 131.664 45.0698 127.104 45.0698C122.545 45.0698 118.849 48.7661 118.849 53.3257C118.849 57.8853 122.545 61.5815 127.104 61.5815Z" fill="#5EC798"/>
<path d="M126.274 62.5038C130.887 62.5038 134.627 58.764 134.627 54.1508C134.627 49.5376 130.887 45.7979 126.274 45.7979C121.661 45.7979 117.921 49.5376 117.921 54.1508C117.921 58.764 121.661 62.5038 126.274 62.5038Z" fill="#5EC697"/>
<path d="M125.452 63.4769C130.119 63.4769 133.902 59.6936 133.902 55.0268C133.902 50.3599 130.119 46.5767 125.452 46.5767C120.785 46.5767 117.002 50.3599 117.002 55.0268C117.002 59.6936 120.785 63.4769 125.452 63.4769Z" fill="#5DC596"/>
<path d="M124.625 64.446C129.346 64.446 133.173 60.6193 133.173 55.8988C133.173 51.1783 129.346 47.3516 124.625 47.3516C119.905 47.3516 116.078 51.1783 116.078 55.8988C116.078 60.6193 119.905 64.446 124.625 64.446Z" fill="#5DC496"/>
<path d="M123.803 65.4191C128.577 65.4191 132.447 61.5489 132.447 56.7747C132.447 52.0006 128.577 48.1304 123.803 48.1304C119.028 48.1304 115.158 52.0006 115.158 56.7747C115.158 61.5489 119.028 65.4191 123.803 65.4191Z" fill="#5DC395"/>
<path d="M122.976 66.3882C127.804 66.3882 131.717 62.4746 131.717 57.6468C131.717 52.819 127.804 48.9053 122.976 48.9053C118.148 48.9053 114.234 52.819 114.234 57.6468C114.234 62.4746 118.148 66.3882 122.976 66.3882Z" fill="#5CC294"/>
<path d="M122.105 67.3111C126.959 67.3111 130.895 63.3756 130.895 58.521C130.895 53.6664 126.959 49.731 122.105 49.731C117.25 49.731 113.314 53.6664 113.314 58.521C113.314 63.3756 117.25 67.3111 122.105 67.3111Z" fill="#5CC193"/>
<path d="M121.275 68.2802C126.183 68.2802 130.162 64.3013 130.162 59.393C130.162 54.4848 126.183 50.5059 121.275 50.5059C116.367 50.5059 112.388 54.4848 112.388 59.393C112.388 64.3013 116.367 68.2802 121.275 68.2802Z" fill="#5BC093"/>
<path d="M120.448 69.2533C125.41 69.2533 129.432 65.2309 129.432 60.269C129.432 55.3071 125.41 51.2847 120.448 51.2847C115.486 51.2847 111.464 55.3071 111.464 60.269C111.464 65.2309 115.486 69.2533 120.448 69.2533Z" fill="#5BBF92"/>
<path d="M119.625 70.2259C124.641 70.2259 128.707 66.16 128.707 61.1444C128.707 56.1289 124.641 52.063 119.625 52.063C114.61 52.063 110.544 56.1289 110.544 61.1444C110.544 66.16 114.61 70.2259 119.625 70.2259Z" fill="#5ABE91"/>
<path d="M118.796 71.1989C123.865 71.1989 127.974 67.0895 127.974 62.0204C127.974 56.9512 123.865 52.8418 118.796 52.8418C113.727 52.8418 109.617 56.9512 109.617 62.0204C109.617 67.0895 113.727 71.1989 118.796 71.1989Z" fill="#5ABD91"/>
<path d="M117.973 72.1681C123.096 72.1681 127.249 68.0152 127.249 62.8924C127.249 57.7696 123.096 53.6167 117.973 53.6167C112.85 53.6167 108.697 57.7696 108.697 62.8924C108.697 68.0152 112.85 72.1681 117.973 72.1681Z" fill="#5ABC90"/>
<path d="M117.098 73.0406C122.247 73.0406 126.422 68.866 126.422 63.7163C126.422 58.5667 122.247 54.3921 117.098 54.3921C111.948 54.3921 107.773 58.5667 107.773 63.7163C107.773 68.866 111.948 73.0406 117.098 73.0406Z" fill="#59BB8F"/>
<path d="M116.275 74.0132C121.478 74.0132 125.696 69.7951 125.696 64.5918C125.696 59.3885 121.478 55.1704 116.275 55.1704C111.072 55.1704 106.854 59.3885 106.854 64.5918C106.854 69.7951 111.072 74.0132 116.275 74.0132Z" fill="#59BA8E"/>
<path d="M115.449 74.9823C120.706 74.9823 124.968 70.7207 124.968 65.4638C124.968 60.2069 120.706 55.9453 115.449 55.9453C110.192 55.9453 105.931 60.2069 105.931 65.4638C105.931 70.7207 110.192 74.9823 115.449 74.9823Z" fill="#58B98E"/>
<path d="M114.626 75.9554C119.937 75.9554 124.242 71.6503 124.242 66.3398C124.242 61.0292 119.937 56.7241 114.626 56.7241C109.316 56.7241 105.011 61.0292 105.011 66.3398C105.011 71.6503 109.316 75.9554 114.626 75.9554Z" fill="#58B88D"/>
<path d="M113.796 76.9285C119.16 76.9285 123.509 72.5799 123.509 67.2157C123.509 61.8515 119.16 57.5029 113.796 57.5029C108.432 57.5029 104.083 61.8515 104.083 67.2157C104.083 72.5799 108.432 76.9285 113.796 76.9285Z" fill="#58B78C"/>
<path d="M112.97 77.8976C118.388 77.8976 122.78 73.5056 122.78 68.0877C122.78 62.6699 118.388 58.2778 112.97 58.2778C107.552 58.2778 103.16 62.6699 103.16 68.0877C103.16 73.5056 107.552 77.8976 112.97 77.8976Z" fill="#57B68B"/>
<path d="M112.099 78.8204C117.543 78.8204 121.957 74.4066 121.957 68.962C121.957 63.5173 117.543 59.1035 112.099 59.1035C106.654 59.1035 102.24 63.5173 102.24 68.962C102.24 74.4066 106.654 78.8204 112.099 78.8204Z" fill="#57B58B"/>
<path d="M111.269 79.7935C116.767 79.7935 121.225 75.3362 121.225 69.8379C121.225 64.3396 116.767 59.8823 111.269 59.8823C105.771 59.8823 101.313 64.3396 101.313 69.8379C101.313 75.3362 105.771 79.7935 111.269 79.7935Z" fill="#56B48A"/>
<path d="M110.446 80.7626C115.998 80.7626 120.499 76.2619 120.499 70.7099C120.499 65.158 115.998 60.6572 110.446 60.6572C104.894 60.6572 100.394 65.158 100.394 70.7099C100.394 76.2619 104.894 80.7626 110.446 80.7626Z" fill="#56B389"/>
<path d="M109.62 81.7318C115.225 81.7318 119.769 77.1876 119.769 71.582C119.769 65.9764 115.225 61.4321 109.62 61.4321C104.014 61.4321 99.4697 65.9764 99.4697 71.582C99.4697 77.1876 104.014 81.7318 109.62 81.7318Z" fill="#56B288"/>
<path d="M108.797 82.7049C114.456 82.7049 119.044 78.1171 119.044 72.4579C119.044 66.7987 114.456 62.2109 108.797 62.2109C103.138 62.2109 98.5498 66.7987 98.5498 72.4579C98.5498 78.1171 103.138 82.7049 108.797 82.7049Z" fill="#55B188"/>
<path d="M107.97 83.6267C113.683 83.6267 118.314 78.9955 118.314 73.2826C118.314 67.5697 113.683 62.9385 107.97 62.9385C102.257 62.9385 97.626 67.5697 97.626 73.2826C97.626 78.9955 102.257 83.6267 107.97 83.6267Z" fill="#55B087"/>
<path d="M107.094 84.5997C112.86 84.5997 117.535 79.925 117.535 74.1585C117.535 68.392 112.86 63.7173 107.094 63.7173C101.327 63.7173 96.6523 68.392 96.6523 74.1585C96.6523 79.925 101.327 84.5997 107.094 84.5997Z" fill="#54AF86"/>
<path d="M106.269 85.5225C112.062 85.5225 116.759 80.8261 116.759 75.0328C116.759 69.2394 112.062 64.543 106.269 64.543C100.476 64.543 95.7793 69.2394 95.7793 75.0328C95.7793 80.8261 100.476 85.5225 106.269 85.5225Z" fill="#54AE86"/>
<path d="M105.442 86.4956C111.289 86.4956 116.029 81.7557 116.029 75.9087C116.029 70.0617 111.289 65.3218 105.442 65.3218C99.5954 65.3218 94.8555 70.0617 94.8555 75.9087C94.8555 81.7557 99.5954 86.4956 105.442 86.4956Z" fill="#54AD85"/>
<path d="M104.62 87.4648C110.52 87.4648 115.304 82.6814 115.304 76.7807C115.304 70.8801 110.52 66.0967 104.62 66.0967C98.719 66.0967 93.9355 70.8801 93.9355 76.7807C93.9355 82.6814 98.719 87.4648 104.62 87.4648Z" fill="#53AC84"/>
<path d="M103.79 88.4378C109.744 88.4378 114.571 83.6109 114.571 77.6567C114.571 71.7024 109.744 66.8755 103.79 66.8755C97.8357 66.8755 93.0088 71.7024 93.0088 77.6567C93.0088 83.6109 97.8357 88.4378 103.79 88.4378Z" fill="#53AB83"/>
<path d="M102.967 89.407C108.975 89.407 113.845 84.5366 113.845 78.5287C113.845 72.5208 108.975 67.6504 102.967 67.6504C96.9592 67.6504 92.0889 72.5208 92.0889 78.5287C92.0889 84.5366 96.9592 89.407 102.967 89.407Z" fill="#52AA83"/>
<path d="M102.094 90.3796C108.155 90.3796 113.069 85.4657 113.069 79.4041C113.069 73.3426 108.155 68.4287 102.094 68.4287C96.032 68.4287 91.1182 73.3426 91.1182 79.4041C91.1182 85.4657 96.032 90.3796 102.094 90.3796Z" fill="#52A982"/>
<path d="M101.27 91.3028C107.358 91.3028 112.294 86.3673 112.294 80.2789C112.294 74.1905 107.358 69.2549 101.27 69.2549C95.1817 69.2549 90.2461 74.1905 90.2461 80.2789C90.2461 86.3673 95.1817 91.3028 101.27 91.3028Z" fill="#52A881"/>
<path d="M100.443 92.272C106.585 92.272 111.564 87.2929 111.564 81.1509C111.564 75.0089 106.585 70.0298 100.443 70.0298C94.3014 70.0298 89.3223 75.0089 89.3223 81.1509C89.3223 87.2929 94.3014 92.272 100.443 92.272Z" fill="#51A780"/>
<path d="M99.6128 93.2446C105.808 93.2446 110.831 88.222 110.831 82.0263C110.831 75.8307 105.808 70.8081 99.6128 70.8081C93.4171 70.8081 88.3945 75.8307 88.3945 82.0263C88.3945 88.222 93.4171 93.2446 99.6128 93.2446Z" fill="#51A680"/>
<path d="M98.791 94.2176C105.04 94.2176 110.106 89.1516 110.106 82.9023C110.106 76.653 105.04 71.5869 98.791 71.5869C92.5416 71.5869 87.4756 76.653 87.4756 82.9023C87.4756 89.1516 92.5416 94.2176 98.791 94.2176Z" fill="#50A57F"/>
<path d="M97.9642 95.1399C104.267 95.1399 109.377 90.0304 109.377 83.7274C109.377 77.4245 104.267 72.3149 97.9642 72.3149C91.6613 72.3149 86.5518 77.4245 86.5518 83.7274C86.5518 90.0304 91.6613 95.1399 97.9642 95.1399Z" fill="#50A47E"/>
<path d="M97.0946 96.1091C103.451 96.1091 108.604 90.9561 108.604 84.5995C108.604 78.2429 103.451 73.0898 97.0946 73.0898C90.738 73.0898 85.585 78.2429 85.585 84.5995C85.585 90.9561 90.738 96.1091 97.0946 96.1091Z" fill="#4FA37D"/>
<path d="M96.2633 97.0319C102.647 97.0319 107.821 91.8571 107.821 85.4737C107.821 79.0903 102.647 73.9155 96.2633 73.9155C89.8799 73.9155 84.7051 79.0903 84.7051 85.4737C84.7051 91.8571 89.8799 97.0319 96.2633 97.0319Z" fill="#4FA27D"/>
<path d="M95.4405 98.005C101.878 98.005 107.096 92.7867 107.096 86.3497C107.096 79.9126 101.878 74.6943 95.4405 74.6943C89.0034 74.6943 83.7852 79.9126 83.7852 86.3497C83.7852 92.7867 89.0034 98.005 95.4405 98.005Z" fill="#4FA17C"/>
<path d="M94.6138 98.9741C101.104 98.9741 106.366 93.7124 106.366 87.2217C106.366 80.731 101.104 75.4692 94.6138 75.4692C88.1231 75.4692 82.8613 80.731 82.8613 87.2217C82.8613 93.7124 88.1231 98.9741 94.6138 98.9741Z" fill="#4EA07B"/>
<path d="M93.791 99.9472C100.335 99.9472 105.641 94.642 105.641 88.0976C105.641 81.5533 100.335 76.248 93.791 76.248C87.2466 76.248 81.9414 81.5533 81.9414 88.0976C81.9414 94.642 87.2466 99.9472 93.791 99.9472Z" fill="#4E9F7B"/>
<path d="M92.9643 100.92C99.5623 100.92 104.911 95.571 104.911 88.9731C104.911 82.3751 99.5623 77.0264 92.9643 77.0264C86.3663 77.0264 81.0176 82.3751 81.0176 88.9731C81.0176 95.571 86.3663 100.92 92.9643 100.92Z" fill="#4D9E7A"/>
<path d="M92.0878 101.889C98.7394 101.889 104.132 96.4967 104.132 89.8451C104.132 83.1935 98.7394 77.8013 92.0878 77.8013C85.4361 77.8013 80.0439 83.1935 80.0439 89.8451C80.0439 96.4967 85.4361 101.889 92.0878 101.889Z" fill="#4D9D79"/>
<path d="M91.2633 102.812C97.9417 102.812 103.356 97.3978 103.356 90.7193C103.356 84.0409 97.9417 78.627 91.2633 78.627C84.5848 78.627 79.1709 84.0409 79.1709 90.7193C79.1709 97.3978 84.5848 102.812 91.2633 102.812Z" fill="#4D9C78"/>
<path d="M90.4366 103.781C97.1687 103.781 102.626 98.3239 102.626 91.5919C102.626 84.8598 97.1687 79.4023 90.4366 79.4023C83.7045 79.4023 78.2471 84.8598 78.2471 91.5919C78.2471 98.3239 83.7045 103.781 90.4366 103.781Z" fill="#4C9B78"/>
<path d="M89.6138 104.754C96.3995 104.754 101.9 99.253 101.9 92.4673C101.9 85.6816 96.3995 80.1807 89.6138 80.1807C82.8281 80.1807 77.3271 85.6816 77.3271 92.4673C77.3271 99.253 82.8281 104.754 89.6138 104.754Z" fill="#4C9A77"/>
<path d="M88.7842 105.676C95.6235 105.676 101.168 100.132 101.168 93.2925C101.168 86.4531 95.6235 80.9087 88.7842 80.9087C81.9448 80.9087 76.4004 86.4531 76.4004 93.2925C76.4004 100.132 81.9448 105.676 88.7842 105.676Z" fill="#4B9976"/>
<path d="M87.9614 106.649C94.8544 106.649 100.442 101.061 100.442 94.1684C100.442 87.2754 94.8544 81.6875 87.9614 81.6875C81.0684 81.6875 75.4805 87.2754 75.4805 94.1684C75.4805 101.061 81.0684 106.649 87.9614 106.649Z" fill="#4B9875"/>
<path d="M87.0878 107.618C94.0344 107.618 99.6658 101.987 99.6658 95.0404C99.6658 88.0938 94.0344 82.4624 87.0878 82.4624C80.1411 82.4624 74.5098 88.0938 74.5098 95.0404C74.5098 101.987 80.1411 107.618 87.0878 107.618Z" fill="#4B9775"/>
<path d="M86.2604 108.541C93.2339 108.541 98.887 102.888 98.887 95.9147C98.887 88.9412 93.2339 83.2881 86.2604 83.2881C79.2869 83.2881 73.6338 88.9412 73.6338 95.9147C73.6338 102.888 79.2869 108.541 86.2604 108.541Z" fill="#4A9674"/>
<path d="M85.4376 109.514C92.4647 109.514 98.1613 103.818 98.1613 96.7906C98.1613 89.7635 92.4647 84.0669 85.4376 84.0669C78.4105 84.0669 72.7139 89.7635 72.7139 96.7906C72.7139 103.818 78.4105 109.514 85.4376 109.514Z" fill="#4A9573"/>
<path d="M84.608 110.483C91.6887 110.483 97.4288 104.743 97.4288 97.6626C97.4288 90.5819 91.6887 84.8418 84.608 84.8418C77.5272 84.8418 71.7871 90.5819 71.7871 97.6626C71.7871 104.743 77.5272 110.483 84.608 110.483Z" fill="#499472"/>
<path d="M83.7852 111.457C90.9196 111.457 96.7031 105.673 96.7031 98.5386C96.7031 91.4042 90.9196 85.6206 83.7852 85.6206C76.6508 85.6206 70.8672 91.4042 70.8672 98.5386C70.8672 105.673 76.6508 111.457 83.7852 111.457Z" fill="#499372"/>
<path d="M82.9116 112.426C90.0996 112.426 95.9267 106.599 95.9267 99.4106C95.9267 92.2226 90.0996 86.3955 82.9116 86.3955C75.7235 86.3955 69.8965 92.2226 69.8965 99.4106C69.8965 106.599 75.7235 112.426 82.9116 112.426Z" fill="#499271"/>
<path d="M82.081 113.398C89.3227 113.398 95.1932 107.528 95.1932 100.286C95.1932 93.0444 89.3227 87.1738 82.081 87.1738C74.8393 87.1738 68.9688 93.0444 68.9688 100.286C68.9688 107.528 74.8393 113.398 82.081 113.398Z" fill="#489170"/>
<path d="M81.2575 114.321C88.526 114.321 94.4183 108.429 94.4183 101.16C94.4183 93.8918 88.526 87.9995 81.2575 87.9995C73.989 87.9995 68.0967 93.8918 68.0967 101.16C68.0967 108.429 73.989 114.321 81.2575 114.321Z" fill="#489070"/>
<path d="M80.4347 115.294C87.7568 115.294 93.6926 109.358 93.6926 102.036C93.6926 94.7141 87.7568 88.7783 80.4347 88.7783C73.1125 88.7783 67.1768 94.7141 67.1768 102.036C67.1768 109.358 73.1125 115.294 80.4347 115.294Z" fill="#478F6F"/>
<path d="M79.608 116.263C86.9838 116.263 92.963 110.284 92.963 102.908C92.963 95.5325 86.9838 89.5532 79.608 89.5532C72.2322 89.5532 66.2529 95.5325 66.2529 102.908C66.2529 110.284 72.2322 116.263 79.608 116.263Z" fill="#478E6E"/>
<path d="M80.1397 116.603C87.5691 116.603 93.5919 110.58 93.5919 103.15C93.5919 95.721 87.5691 89.6982 80.1397 89.6982C72.7102 89.6982 66.6875 95.721 66.6875 103.15C66.6875 110.58 72.7102 116.603 80.1397 116.603Z" fill="#478D6D"/>
<path d="M81.3598 116.703C88.8429 116.703 94.9092 110.636 94.9092 103.153C94.9092 95.6702 88.8429 89.604 81.3598 89.604C73.8768 89.604 67.8105 95.6702 67.8105 103.153C67.8105 110.636 73.8768 116.703 81.3598 116.703Z" fill="#468C6D"/>
<path d="M82.5214 116.799C90.0582 116.799 96.1679 110.689 96.1679 103.153C96.1679 95.6161 90.0582 89.5063 82.5214 89.5063C74.9847 89.5063 68.875 95.6161 68.875 103.153C68.875 110.689 74.9847 116.799 82.5214 116.799Z" fill="#468B6C"/>
<path d="M83.736 116.846C91.2996 116.846 97.431 110.714 97.431 103.151C97.431 95.587 91.2996 89.4556 83.736 89.4556C76.1725 89.4556 70.041 95.587 70.041 103.151C70.041 110.714 76.1725 116.846 83.736 116.846Z" fill="#458A6B"/>
<path d="M84.9484 116.942C92.5656 116.942 98.7405 110.767 98.7405 103.15C98.7405 95.5329 92.5656 89.3579 84.9484 89.3579C77.3312 89.3579 71.1562 95.5329 71.1562 103.15C71.1562 110.767 77.3312 116.942 84.9484 116.942Z" fill="#45896A"/>
<path d="M86.1646 117.042C93.8355 117.042 100.054 110.824 100.054 103.153C100.054 95.4821 93.8355 89.2637 86.1646 89.2637C78.4938 89.2637 72.2754 95.4821 72.2754 103.153C72.2754 110.824 78.4938 117.042 86.1646 117.042Z" fill="#44886A"/>
<path d="M87.377 117.139C95.1015 117.139 101.363 110.877 101.363 103.152C101.363 95.4279 95.1015 89.166 87.377 89.166C79.6525 89.166 73.3906 95.4279 73.3906 103.152C73.3906 110.877 79.6525 117.139 87.377 117.139Z" fill="#448769"/>
<path d="M88.5464 117.235C96.3245 117.235 102.63 110.929 102.63 103.151C102.63 95.3733 96.3245 89.0679 88.5464 89.0679C80.7683 89.0679 74.4629 95.3733 74.4629 103.151C74.4629 110.929 80.7683 117.235 88.5464 117.235Z" fill="#448668"/>
<path d="M89.7588 117.331C97.5905 117.331 103.939 110.983 103.939 103.151C103.939 95.3191 97.5905 88.9702 89.7588 88.9702C81.927 88.9702 75.5781 95.3191 75.5781 103.151C75.5781 110.983 81.927 117.331 89.7588 117.331Z" fill="#438567"/>
<path d="M90.9733 117.382C98.8319 117.382 105.203 111.011 105.203 103.153C105.203 95.294 98.8319 88.9233 90.9733 88.9233C83.1148 88.9233 76.7441 95.294 76.7441 103.153C76.7441 111.011 83.1148 117.382 90.9733 117.382Z" fill="#438467"/>
<path d="M92.1828 117.478C100.095 117.478 106.509 111.064 106.509 103.152C106.509 95.2393 100.095 88.8252 92.1828 88.8252C84.2706 88.8252 77.8564 95.2393 77.8564 103.152C77.8564 111.064 84.2706 117.478 92.1828 117.478Z" fill="#428366"/>
<path d="M93.4029 117.574C101.369 117.574 107.826 111.117 107.826 103.151C107.826 95.1851 101.369 88.7275 93.4029 88.7275C85.4371 88.7275 78.9795 95.1851 78.9795 103.151C78.9795 111.117 85.4371 117.574 93.4029 117.574Z" fill="#428265"/>
<path d="M94.6114 117.671C102.631 117.671 109.132 111.17 109.132 103.15C109.132 95.131 102.631 88.6299 94.6114 88.6299C86.5919 88.6299 80.0908 95.131 80.0908 103.15C80.0908 111.17 86.5919 117.671 94.6114 117.671Z" fill="#428165"/>
<path d="M95.7808 117.768C103.854 117.768 110.399 111.223 110.399 103.15C110.399 95.0768 103.854 88.5322 95.7808 88.5322C87.7077 88.5322 81.1631 95.0768 81.1631 103.15C81.1631 111.223 87.7077 117.768 95.7808 117.768Z" fill="#418064"/>
<path d="M96.9932 117.864C105.12 117.864 111.708 111.276 111.708 103.149C111.708 95.0221 105.12 88.4341 96.9932 88.4341C88.8664 88.4341 82.2783 95.0221 82.2783 103.149C82.2783 111.276 88.8664 117.864 96.9932 117.864Z" fill="#417F63"/>
<path d="M98.2094 117.964C106.39 117.964 113.021 111.333 113.021 103.152C113.021 94.9719 106.39 88.3403 98.2094 88.3403C90.029 88.3403 83.3975 94.9719 83.3975 103.152C83.3975 111.333 90.029 117.964 98.2094 117.964Z" fill="#407E62"/>
<path d="M99.4201 118.011C107.627 118.011 114.281 111.357 114.281 103.15C114.281 94.9428 107.627 88.2896 99.4201 88.2896C91.2129 88.2896 84.5596 94.9428 84.5596 103.15C84.5596 111.357 91.2129 118.011 99.4201 118.011Z" fill="#407D62"/>
<path d="M100.636 118.111C108.897 118.111 115.594 111.414 115.594 103.153C115.594 94.8921 108.897 88.1953 100.636 88.1953C92.3755 88.1953 85.6787 94.8921 85.6787 103.153C85.6787 111.414 92.3755 118.111 100.636 118.111Z" fill="#407C61"/>
<path d="M101.802 118.207C110.116 118.207 116.857 111.467 116.857 103.152C116.857 94.8379 110.116 88.0977 101.802 88.0977C93.4873 88.0977 86.7471 94.8379 86.7471 103.152C86.7471 111.467 93.4873 118.207 101.802 118.207Z" fill="#3F7B60"/>
<path d="M103.018 118.303C111.386 118.303 118.17 111.52 118.17 103.151C118.17 94.7832 111.386 87.9995 103.018 87.9995C94.65 87.9995 87.8662 94.7832 87.8662 103.151C87.8662 111.52 94.65 118.303 103.018 118.303Z" fill="#3F7A5F"/>
<path d="M104.228 118.4C112.649 118.4 119.477 111.573 119.477 103.151C119.477 94.7291 112.649 87.9019 104.228 87.9019C95.8057 87.9019 88.9785 94.7291 88.9785 103.151C88.9785 111.573 95.8057 118.4 104.228 118.4Z" fill="#3E795F"/>
<path d="M105.443 118.497C113.918 118.497 120.789 111.626 120.789 103.15C120.789 94.6749 113.918 87.8042 105.443 87.8042C96.9674 87.8042 90.0967 94.6749 90.0967 103.15C90.0967 111.626 96.9674 118.497 105.443 118.497Z" fill="#3E785E"/>
<path d="M106.661 118.547C115.164 118.547 122.056 111.654 122.056 103.152C122.056 94.6498 115.164 87.7573 106.661 87.7573C98.1591 87.7573 91.2666 94.6498 91.2666 103.152C91.2666 111.654 98.1591 118.547 106.661 118.547Z" fill="#3E775D"/>
<path d="M107.824 118.643C116.38 118.643 123.316 111.707 123.316 103.151C123.316 94.5951 116.38 87.6592 107.824 87.6592C99.268 87.6592 92.332 94.5951 92.332 103.151C92.332 111.707 99.268 118.643 107.824 118.643Z" fill="#3D765C"/>
<path d="M109.036 118.739C117.646 118.739 124.625 111.76 124.625 103.151C124.625 94.5409 117.646 87.5615 109.036 87.5615C100.427 87.5615 93.4473 94.5409 93.4473 103.151C93.4473 111.76 100.427 118.739 109.036 118.739Z" fill="#3D755C"/>
<path d="M110.253 118.84C118.916 118.84 125.939 111.817 125.939 103.153C125.939 94.4902 118.916 87.4673 110.253 87.4673C101.589 87.4673 94.5664 94.4902 94.5664 103.153C94.5664 111.817 101.589 118.84 110.253 118.84Z" fill="#3C745B"/>
<path d="M111.465 118.936C120.182 118.936 127.248 111.87 127.248 103.153C127.248 94.436 120.182 87.3696 111.465 87.3696C102.748 87.3696 95.6816 94.436 95.6816 103.153C95.6816 111.87 102.748 118.936 111.465 118.936Z" fill="#3C735A"/>
<path d="M112.681 119.033C121.452 119.033 128.562 111.923 128.562 103.152C128.562 94.3819 121.452 87.272 112.681 87.272C103.911 87.272 96.8008 94.3819 96.8008 103.152C96.8008 111.923 103.911 119.033 112.681 119.033Z" fill="#3C725A"/>
<path d="M113.896 119.079C122.693 119.079 129.825 111.947 129.825 103.15C129.825 94.3528 122.693 87.2212 113.896 87.2212C105.098 87.2212 97.9668 94.3528 97.9668 103.15C97.9668 111.947 105.098 119.079 113.896 119.079Z" fill="#3B7159"/>
<path d="M115.061 119.176C123.912 119.176 131.087 112.001 131.087 103.15C131.087 94.2986 123.912 87.1235 115.061 87.1235C106.21 87.1235 99.0352 94.2986 99.0352 103.15C99.0352 112.001 106.21 119.176 115.061 119.176Z" fill="#3B7058"/>
<path d="M116.277 119.272C125.182 119.272 132.401 112.053 132.401 103.149C132.401 94.244 125.182 87.0254 116.277 87.0254C107.373 87.0254 100.154 94.244 100.154 103.149C100.154 112.053 107.373 119.272 116.277 119.272Z" fill="#3A6F57"/>
<path d="M117.486 119.372C126.444 119.372 133.706 112.11 133.706 103.151C133.706 94.1932 126.444 86.9312 117.486 86.9312C108.528 86.9312 101.266 94.1932 101.266 103.151C101.266 112.11 108.528 119.372 117.486 119.372Z" fill="#3A6E57"/>
<path d="M118.702 119.468C127.714 119.468 135.02 112.163 135.02 103.151C135.02 94.1391 127.714 86.8335 118.702 86.8335C109.69 86.8335 102.385 94.1391 102.385 103.151C102.385 112.163 109.69 119.468 118.702 119.468Z" fill="#396D56"/>
<path d="M119.915 119.568C128.98 119.568 136.329 112.219 136.329 103.154C136.329 94.0883 128.98 86.7393 119.915 86.7393C110.849 86.7393 103.5 94.0883 103.5 103.154C103.5 112.219 110.849 119.568 119.915 119.568Z" fill="#396C55"/>
<path d="M121.082 119.615C130.175 119.615 137.545 112.244 137.545 103.152C137.545 94.0598 130.175 86.689 121.082 86.689C111.99 86.689 104.619 94.0598 104.619 103.152C104.619 112.244 111.99 119.615 121.082 119.615Z" fill="#396B54"/>
<path d="M122.296 119.711C131.442 119.711 138.856 112.297 138.856 103.151C138.856 94.0051 131.442 86.5908 122.296 86.5908C113.15 86.5908 105.735 94.0051 105.735 103.151C105.735 112.297 113.15 119.711 122.296 119.711Z" fill="#386A54"/>
<path d="M123.511 119.808C132.711 119.808 140.168 112.35 140.168 103.151C140.168 93.9509 132.711 86.4932 123.511 86.4932C114.311 86.4932 106.854 93.9509 106.854 103.151C106.854 112.35 114.311 119.808 123.511 119.808Z" fill="#386953"/>
<path d="M124.724 119.905C133.977 119.905 141.479 112.403 141.479 103.15C141.479 93.8968 133.977 86.3955 124.724 86.3955C115.471 86.3955 107.97 93.8968 107.97 103.15C107.97 112.403 115.471 119.905 124.724 119.905Z" fill="#376852"/>
<path d="M125.941 120.001C135.247 120.001 142.792 112.456 142.792 103.149C142.792 93.8421 135.247 86.2974 125.941 86.2974C116.634 86.2974 109.089 93.8421 109.089 103.149C109.089 112.456 116.634 120.001 125.941 120.001Z" fill="#376751"/>
<path d="M127.102 120.101C136.463 120.101 144.051 112.513 144.051 103.152C144.051 93.7918 136.463 86.2036 127.102 86.2036C117.742 86.2036 110.153 93.7918 110.153 103.152C110.153 112.513 117.742 120.101 127.102 120.101Z" fill="#376651"/>
<path d="M128.321 120.147C137.708 120.147 145.318 112.538 145.318 103.15C145.318 93.7628 137.708 86.1528 128.321 86.1528C118.933 86.1528 111.323 93.7628 111.323 103.15C111.323 112.538 118.933 120.147 128.321 120.147Z" fill="#366550"/>
<path d="M129.529 120.248C138.97 120.248 146.623 112.594 146.623 103.153C146.623 93.712 138.97 86.0586 129.529 86.0586C120.088 86.0586 112.435 93.712 112.435 103.153C112.435 112.594 120.088 120.248 129.529 120.248Z" fill="#36644F"/>
<path d="M130.745 120.344C140.24 120.344 147.937 112.647 147.937 103.153C147.937 93.6579 140.24 85.9609 130.745 85.9609C121.251 85.9609 113.554 93.6579 113.554 103.153C113.554 112.647 121.251 120.344 130.745 120.344Z" fill="#35634E"/>
<path d="M131.958 120.44C141.506 120.44 149.246 112.7 149.246 103.152C149.246 93.6032 141.506 85.8628 131.958 85.8628C122.409 85.8628 114.669 93.6032 114.669 103.152C114.669 112.7 122.409 120.44 131.958 120.44Z" fill="#35624E"/>
<path d="M133.174 120.537C142.776 120.537 150.56 112.753 150.56 103.151C150.56 93.549 142.776 85.7651 133.174 85.7651C123.572 85.7651 115.788 93.549 115.788 103.151C115.788 112.753 123.572 120.537 133.174 120.537Z" fill="#35614D"/>
<path d="M134.339 120.633C143.995 120.633 151.822 112.806 151.822 103.15C151.822 93.4949 143.995 85.6675 134.339 85.6675C124.684 85.6675 116.856 93.4949 116.856 103.15C116.856 112.806 124.684 120.633 134.339 120.633Z" fill="#34604C"/>
<path d="M135.554 120.684C145.236 120.684 153.086 112.835 153.086 103.152C153.086 93.4697 145.236 85.6206 135.554 85.6206C125.872 85.6206 118.022 93.4697 118.022 103.152C118.022 112.835 125.872 120.684 135.554 120.684Z" fill="#345F4C"/>
<path d="M136.767 120.78C146.503 120.78 154.396 112.887 154.396 103.151C154.396 93.4151 146.503 85.5225 136.767 85.5225C127.031 85.5225 119.139 93.4151 119.139 103.151C119.139 112.887 127.031 120.78 136.767 120.78Z" fill="#335E4B"/>
<path d="M137.983 120.876C147.772 120.876 155.708 112.94 155.708 103.151C155.708 93.3609 147.772 85.4248 137.983 85.4248C128.193 85.4248 120.257 93.3609 120.257 103.151C120.257 112.94 128.193 120.876 137.983 120.876Z" fill="#335D4A"/>
<path d="M139.196 120.976C149.039 120.976 157.019 112.997 157.019 103.153C157.019 93.3102 149.039 85.3306 139.196 85.3306C129.353 85.3306 121.373 93.3102 121.373 103.153C121.373 112.997 129.353 120.976 139.196 120.976Z" fill="#335C49"/>
<path d="M140.361 121.073C150.258 121.073 158.281 113.05 158.281 103.153C158.281 93.256 150.258 85.2329 140.361 85.2329C130.464 85.2329 122.441 93.256 122.441 103.153C122.441 113.05 130.464 121.073 140.361 121.073Z" fill="#325B49"/>
<path d="M141.574 121.17C151.524 121.17 159.591 113.103 159.591 103.152C159.591 93.2018 151.524 85.1353 141.574 85.1353C131.623 85.1353 123.557 93.2018 123.557 103.152C123.557 113.103 131.623 121.17 141.574 121.17Z" fill="#325A48"/>
<path d="M142.788 121.216C152.766 121.216 160.854 113.128 160.854 103.15C160.854 93.1728 152.766 85.0845 142.788 85.0845C132.811 85.0845 124.723 93.1728 124.723 103.15C124.723 113.128 132.811 121.216 142.788 121.216Z" fill="#315947"/>
<path d="M144.001 121.313C154.032 121.313 162.164 113.181 162.164 103.15C162.164 93.1186 154.032 84.9868 144.001 84.9868C133.97 84.9868 125.838 93.1186 125.838 103.15C125.838 113.181 133.97 121.313 144.001 121.313Z" fill="#315846"/>
<path d="M145.217 121.409C155.302 121.409 163.477 113.233 163.477 103.149C163.477 93.0639 155.302 84.8887 145.217 84.8887C135.132 84.8887 126.957 93.0639 126.957 103.149C126.957 113.233 135.132 121.409 145.217 121.409Z" fill="#305746"/>
<path d="M145.753 121.799C155.891 121.799 164.11 113.58 164.11 103.442C164.11 93.3032 155.891 85.0845 145.753 85.0845C135.614 85.0845 127.396 93.3032 127.396 103.442C127.396 113.58 135.614 121.799 145.753 121.799Z" fill="#305645"/>
<path d="M144.875 122.771C155.067 122.771 163.329 114.509 163.329 104.317C163.329 94.125 155.067 85.8628 144.875 85.8628C134.683 85.8628 126.421 94.125 126.421 104.317C126.421 114.509 134.683 122.771 144.875 122.771Z" fill="#305544"/>
<path d="M144.052 123.744C154.298 123.744 162.604 115.439 162.604 105.193C162.604 94.9473 154.298 86.6416 144.052 86.6416C133.807 86.6416 125.501 94.9473 125.501 105.193C125.501 115.439 133.807 123.744 144.052 123.744Z" fill="#2F5443"/>
<path d="M143.225 124.667C153.497 124.667 161.825 116.34 161.825 106.067C161.825 95.7948 153.497 87.4673 143.225 87.4673C132.952 87.4673 124.625 95.7948 124.625 106.067C124.625 116.34 132.952 124.667 143.225 124.667Z" fill="#2F5343"/>
<path d="M142.402 125.636C152.728 125.636 161.099 117.265 161.099 106.939C161.099 96.6132 152.728 88.2422 142.402 88.2422C132.076 88.2422 123.705 96.6132 123.705 106.939C123.705 117.265 132.076 125.636 142.402 125.636Z" fill="#2E5242"/>
<path d="M141.573 126.606C151.952 126.606 160.367 118.192 160.367 107.812C160.367 97.432 151.952 89.0176 141.573 89.0176C131.193 89.0176 122.778 97.432 122.778 107.812C122.778 118.192 131.193 126.606 141.573 126.606Z" fill="#2E5141"/>
<path d="M140.75 127.579C151.183 127.579 159.641 119.121 159.641 108.687C159.641 98.2538 151.183 89.7959 140.75 89.7959C130.316 89.7959 121.858 98.2538 121.858 108.687C121.858 119.121 130.316 127.579 140.75 127.579Z" fill="#2E5041"/>
<path d="M139.876 128.548C150.363 128.548 158.865 120.046 158.865 109.559C158.865 99.0722 150.363 90.5708 139.876 90.5708C129.389 90.5708 120.888 99.0722 120.888 109.559C120.888 120.046 129.389 128.548 139.876 128.548Z" fill="#2D4F40"/>
<path d="M139.049 129.521C149.59 129.521 158.135 120.976 158.135 110.435C158.135 99.8945 149.59 91.3496 139.049 91.3496C128.509 91.3496 119.964 99.8945 119.964 110.435C119.964 120.976 128.509 129.521 139.049 129.521Z" fill="#2D4E3F"/>
<path d="M138.227 130.494C148.821 130.494 157.409 121.905 157.409 111.311C157.409 100.717 148.821 92.1284 138.227 92.1284C127.632 92.1284 119.044 100.717 119.044 111.311C119.044 121.905 127.632 130.494 138.227 130.494Z" fill="#2C4D3E"/>
<path d="M137.402 131.369C148.023 131.369 156.633 122.759 156.633 112.138C156.633 101.517 148.023 92.9067 137.402 92.9067C126.781 92.9067 118.171 101.517 118.171 112.138C118.171 122.759 126.781 131.369 137.402 131.369Z" fill="#2C4C3E"/>
<path d="M136.573 132.339C147.247 132.339 155.901 123.685 155.901 113.011C155.901 102.336 147.247 93.6821 136.573 93.6821C125.898 93.6821 117.244 102.336 117.244 113.011C117.244 123.685 125.898 132.339 136.573 132.339Z" fill="#2C4B3D"/>
<path d="M135.746 133.308C146.474 133.308 155.171 124.611 155.171 113.883C155.171 103.154 146.474 94.457 135.746 94.457C125.017 94.457 116.32 103.154 116.32 113.883C116.32 124.611 125.017 133.308 135.746 133.308Z" fill="#2B4A3C"/>
<path d="M134.876 134.281C145.658 134.281 154.399 125.54 154.399 114.758C154.399 103.976 145.658 95.2354 134.876 95.2354C124.094 95.2354 115.354 103.976 115.354 114.758C115.354 125.54 124.094 134.281 134.876 134.281Z" fill="#2B493B"/>
<path d="M134.047 135.25C144.882 135.25 153.666 126.466 153.666 115.631C153.666 104.795 144.882 96.0107 134.047 96.0107C123.211 96.0107 114.427 104.795 114.427 115.631C114.427 126.466 123.211 135.25 134.047 135.25Z" fill="#2A483B"/>
<path d="M133.224 136.223C144.113 136.223 152.941 127.395 152.941 116.506C152.941 105.617 144.113 96.7891 133.224 96.7891C122.334 96.7891 113.507 105.617 113.507 116.506C113.507 127.395 122.334 136.223 133.224 136.223Z" fill="#2A473A"/>
<path d="M132.395 137.146C143.312 137.146 152.161 128.296 152.161 117.38C152.161 106.464 143.312 97.6147 132.395 97.6147C121.479 97.6147 112.63 106.464 112.63 117.38C112.63 128.296 121.479 137.146 132.395 137.146Z" fill="#2A4639"/>
<path d="M131.573 138.119C142.542 138.119 151.435 129.226 151.435 118.256C151.435 107.286 142.542 98.3936 131.573 98.3936C120.603 98.3936 111.71 107.286 111.71 118.256C111.71 129.226 120.603 138.119 131.573 138.119Z" fill="#294538"/>
<path d="M130.747 139.088C141.77 139.088 150.707 130.152 150.707 119.128C150.707 108.105 141.77 99.1685 130.747 99.1685C119.723 99.1685 110.787 108.105 110.787 119.128C110.787 130.152 119.723 139.088 130.747 139.088Z" fill="#294438"/>
<path d="M129.869 140.061C140.946 140.061 149.926 131.081 149.926 120.004C149.926 108.927 140.946 99.9473 129.869 99.9473C118.792 99.9473 109.812 108.927 109.812 120.004C109.812 131.081 118.792 140.061 129.869 140.061Z" fill="#284337"/>
<path d="M129.047 141.03C140.177 141.03 149.201 132.007 149.201 120.876C149.201 109.745 140.177 100.722 129.047 100.722C117.916 100.722 108.893 109.745 108.893 120.876C108.893 132.007 117.916 141.03 129.047 141.03Z" fill="#284236"/>
<path d="M128.221 141.952C139.405 141.952 148.472 132.886 148.472 121.701C148.472 110.517 139.405 101.45 128.221 101.45C117.036 101.45 107.97 110.517 107.97 121.701C107.97 132.886 117.036 141.952 128.221 141.952Z" fill="#284136"/>
<path d="M127.396 142.875C138.608 142.875 147.696 133.787 147.696 122.576C147.696 111.364 138.608 102.276 127.396 102.276C116.185 102.276 107.097 111.364 107.097 122.576C107.097 133.787 116.185 142.875 127.396 142.875Z" fill="#274035"/>
<path d="M126.567 143.848C137.832 143.848 146.964 134.716 146.964 123.451C146.964 112.187 137.832 103.055 126.567 103.055C115.302 103.055 106.17 112.187 106.17 123.451C106.17 134.716 115.302 143.848 126.567 143.848Z" fill="#273F34"/>
<path d="M125.744 144.821C137.062 144.821 146.238 135.645 146.238 124.327C146.238 113.008 137.062 103.833 125.744 103.833C114.425 103.833 105.25 113.008 105.25 124.327C105.25 135.645 114.425 144.821 125.744 144.821Z" fill="#263E33"/>
<path d="M124.87 145.79C136.242 145.79 145.461 136.571 145.461 125.199C145.461 113.827 136.242 104.608 124.87 104.608C113.498 104.608 104.279 113.827 104.279 125.199C104.279 136.571 113.498 145.79 124.87 145.79Z" fill="#263D33"/>
<path d="M124.044 146.763C135.469 146.763 144.732 137.501 144.732 126.075C144.732 114.649 135.469 105.387 124.044 105.387C112.618 105.387 103.355 114.649 103.355 126.075C103.355 137.501 112.618 146.763 124.044 146.763Z" fill="#253C32"/>
<path d="M123.221 147.732C134.7 147.732 144.006 138.426 144.006 126.947C144.006 115.468 134.7 106.162 123.221 106.162C111.741 106.162 102.436 115.468 102.436 126.947C102.436 138.426 111.741 147.732 123.221 147.732Z" fill="#253B31"/>
<path d="M122.39 148.655C133.896 148.655 143.223 139.327 143.223 127.821C143.223 116.315 133.896 106.987 122.39 106.987C110.883 106.987 101.556 116.315 101.556 127.821C101.556 139.327 110.883 148.655 122.39 148.655Z" fill="#253A30"/>
<path d="M121.567 149.624C133.127 149.624 142.498 140.253 142.498 128.693C142.498 117.133 133.127 107.762 121.567 107.762C110.007 107.762 100.636 117.133 100.636 128.693C100.636 140.253 110.007 149.624 121.567 149.624Z" fill="#243930"/>
<path d="M120.74 150.597C132.354 150.597 141.768 141.183 141.768 129.569C141.768 117.956 132.354 108.541 120.74 108.541C109.127 108.541 99.7119 117.956 99.7119 129.569C99.7119 141.183 109.127 150.597 120.74 150.597Z" fill="#24382F"/>
<path d="M119.87 151.57C131.538 151.57 140.996 142.112 140.996 130.445C140.996 118.778 131.538 109.32 119.87 109.32C108.203 109.32 98.7451 118.778 98.7451 130.445C98.7451 142.112 108.203 151.57 119.87 151.57Z" fill="#23372E"/>
<path d="M119.041 152.493C130.762 152.493 140.263 142.991 140.263 131.27C140.263 119.549 130.762 110.048 119.041 110.048C107.32 110.048 97.8184 119.549 97.8184 131.27C97.8184 142.991 107.32 152.493 119.041 152.493Z" fill="#23362D"/>
<path d="M118.214 153.465C129.988 153.465 139.534 143.92 139.534 132.146C139.534 120.371 129.988 110.826 118.214 110.826C106.44 110.826 96.8945 120.371 96.8945 132.146C96.8945 143.92 106.44 153.465 118.214 153.465Z" fill="#23352D"/>
<path d="M117.39 154.388C129.191 154.388 138.758 144.821 138.758 133.02C138.758 121.219 129.191 111.652 117.39 111.652C105.588 111.652 96.0215 121.219 96.0215 133.02C96.0215 144.821 105.588 154.388 117.39 154.388Z" fill="#22342C"/>
<path d="M116.568 155.357C128.423 155.357 138.033 145.747 138.033 133.892C138.033 122.037 128.423 112.427 116.568 112.427C104.713 112.427 95.1025 122.037 95.1025 133.892C95.1025 145.747 104.713 155.357 116.568 155.357Z" fill="#22332B"/>
<path d="M115.741 156.327C127.65 156.327 137.303 146.673 137.303 134.764C137.303 122.856 127.65 113.202 115.741 113.202C103.832 113.202 94.1787 122.856 94.1787 134.764C94.1787 146.673 103.832 156.327 115.741 156.327Z" fill="#21322B"/>
<path d="M114.864 157.299C126.826 157.299 136.523 147.602 136.523 135.64C136.523 123.678 126.826 113.98 114.864 113.98C102.901 113.98 93.2041 123.678 93.2041 135.64C93.2041 147.602 102.901 157.299 114.864 157.299Z" fill="#21312A"/>
<path d="M114.041 158.272C126.057 158.272 135.797 148.532 135.797 136.516C135.797 124.5 126.057 114.759 114.041 114.759C102.025 114.759 92.2842 124.5 92.2842 136.516C92.2842 148.532 102.025 158.272 114.041 158.272Z" fill="#213029"/>
<path d="M113.215 159.242C125.285 159.242 135.069 149.457 135.069 137.388C135.069 125.318 125.285 115.534 113.215 115.534C101.146 115.534 91.3613 125.318 91.3613 137.388C91.3613 149.457 101.146 159.242 113.215 159.242Z" fill="#202F28"/>
<path d="M112.391 160.164C124.487 160.164 134.293 150.358 134.293 138.262C134.293 126.166 124.487 116.36 112.391 116.36C100.294 116.36 90.4883 126.166 90.4883 138.262C90.4883 150.358 100.294 160.164 112.391 160.164Z" fill="#202E28"/>
<path d="M111.561 161.137C123.711 161.137 133.56 151.288 133.56 139.138C133.56 126.988 123.711 117.139 111.561 117.139C99.411 117.139 89.5615 126.988 89.5615 139.138C89.5615 151.288 99.411 161.137 111.561 161.137Z" fill="#1F2D27"/>
<path d="M110.738 162.107C122.942 162.107 132.835 152.214 132.835 140.01C132.835 127.807 122.942 117.914 110.738 117.914C98.5346 117.914 88.6416 127.807 88.6416 140.01C88.6416 152.214 98.5346 162.107 110.738 162.107Z" fill="#1F2C26"/>
<path d="M109.865 163.08C122.122 163.08 132.058 153.143 132.058 140.886C132.058 128.629 122.122 118.692 109.865 118.692C97.6073 118.692 87.6709 128.629 87.6709 140.886C87.6709 153.143 97.6073 163.08 109.865 163.08Z" fill="#1F2B25"/>
<path d="M109.038 164.002C121.349 164.002 131.329 154.022 131.329 141.711C131.329 129.4 121.349 119.42 109.038 119.42C96.727 119.42 86.7471 129.4 86.7471 141.711C86.7471 154.022 96.727 164.002 109.038 164.002Z" fill="#1E2A25"/>
<path d="M108.211 164.971C120.576 164.971 130.599 154.948 130.599 142.583C130.599 130.219 120.576 120.195 108.211 120.195C95.8467 120.195 85.8232 130.219 85.8232 142.583C85.8232 154.948 95.8467 164.971 108.211 164.971Z" fill="#1E2924"/>
<path d="M107.384 165.894C119.775 165.894 129.82 155.849 129.82 143.457C129.82 131.066 119.775 121.021 107.384 121.021C94.9924 121.021 84.9473 131.066 84.9473 143.457C84.9473 155.849 94.9924 165.894 107.384 165.894Z" fill="#1D2823"/>
<path d="M106.561 166.867C119.006 166.867 129.095 156.778 129.095 144.333C129.095 131.888 119.006 121.799 106.561 121.799C94.116 121.799 84.0273 131.888 84.0273 144.333C84.0273 156.778 94.116 166.867 106.561 166.867Z" fill="#1D2722"/>
<path d="M105.734 167.84C118.233 167.84 128.365 157.707 128.365 145.209C128.365 132.71 118.233 122.578 105.734 122.578C93.2356 122.578 83.1035 132.71 83.1035 145.209C83.1035 157.707 93.2356 167.84 105.734 167.84Z" fill="#1D2622"/>
<path d="M104.858 168.809C117.41 168.809 127.586 158.633 127.586 146.081C127.586 133.529 117.41 123.353 104.858 123.353C92.3055 123.353 82.1299 133.529 82.1299 146.081C82.1299 158.633 92.3055 168.809 104.858 168.809Z" fill="#1C2521"/>
<path d="M104.035 169.782C116.641 169.782 126.86 159.563 126.86 146.957C126.86 134.351 116.641 124.132 104.035 124.132C91.4291 124.132 81.21 134.351 81.21 146.957C81.21 159.563 91.4291 169.782 104.035 169.782Z" fill="#1C2420"/>
<path d="M103.208 170.751C115.868 170.751 126.13 160.488 126.13 147.829C126.13 135.169 115.868 124.907 103.208 124.907C90.5487 124.907 80.2861 135.169 80.2861 147.829C80.2861 160.488 90.5487 170.751 103.208 170.751Z" fill="#1B2320"/>
<path d="M102.385 171.674C115.071 171.674 125.355 161.389 125.355 148.703C125.355 136.017 115.071 125.732 102.385 125.732C89.6984 125.732 79.4141 136.017 79.4141 148.703C79.4141 161.389 89.6984 171.674 102.385 171.674Z" fill="#1B221F"/>
<path d="M101.558 172.647C114.298 172.647 124.626 162.319 124.626 149.579C124.626 136.839 114.298 126.511 101.558 126.511C88.818 126.511 78.4902 136.839 78.4902 149.579C78.4902 162.319 88.818 172.647 101.558 172.647Z" fill="#1A211E"/>
<path d="M100.684 173.616C113.478 173.616 123.849 163.245 123.849 150.451C123.849 137.657 113.478 127.286 100.684 127.286C87.8908 127.286 77.5195 137.657 77.5195 150.451C77.5195 163.245 87.8908 173.616 100.684 173.616Z" fill="#1A201D"/>
<path d="M99.8578 174.542C112.705 174.542 123.12 164.127 123.12 151.28C123.12 138.432 112.705 128.018 99.8578 128.018C87.0105 128.018 76.5957 138.432 76.5957 151.28C76.5957 164.127 87.0105 174.542 99.8578 174.542Z" fill="#1A1F1D"/>
<path d="M99.035 175.511C111.936 175.511 122.394 165.053 122.394 152.152C122.394 139.251 111.936 128.792 99.035 128.792C86.1341 128.792 75.6758 139.251 75.6758 152.152C75.6758 165.053 86.1341 175.511 99.035 175.511Z" fill="#191E1C"/>
<path d="M98.2093 176.484C111.164 176.484 121.666 165.982 121.666 153.028C121.666 140.073 111.164 129.571 98.2093 129.571C85.2547 129.571 74.7529 140.073 74.7529 153.028C74.7529 165.982 85.2547 176.484 98.2093 176.484Z" fill="#191D1B"/>
<path d="M97.3786 177.453C110.387 177.453 120.932 166.908 120.932 153.9C120.932 140.891 110.387 130.346 97.3786 130.346C84.3704 130.346 73.8252 140.891 73.8252 153.9C73.8252 166.908 84.3704 177.453 97.3786 177.453Z" fill="#181C1A"/>
<path d="M96.5551 178.376C109.59 178.376 120.157 167.809 120.157 154.774C120.157 141.739 109.59 131.172 96.5551 131.172C83.5201 131.172 72.9531 141.739 72.9531 154.774C72.9531 167.809 83.5201 178.376 96.5551 178.376Z" fill="#181B1A"/>
<path d="M95.6816 179.346C108.77 179.346 119.381 168.735 119.381 155.646C119.381 142.558 108.77 131.947 95.6816 131.947C82.5929 131.947 71.9824 142.558 71.9824 155.646C71.9824 168.735 82.5929 179.346 95.6816 179.346Z" fill="#181A19"/>
<path d="M94.8588 180.318C108.001 180.318 118.655 169.664 118.655 156.522C118.655 143.38 108.001 132.726 94.8588 132.726C81.7165 132.726 71.0625 143.38 71.0625 156.522C71.0625 169.664 81.7165 180.318 94.8588 180.318Z" fill="#171918"/>
<path d="M94.0321 181.291C107.228 181.291 117.925 170.594 117.925 157.398C117.925 144.202 107.228 133.504 94.0321 133.504C80.8361 133.504 70.1387 144.202 70.1387 157.398C70.1387 170.594 80.8361 181.291 94.0321 181.291Z" fill="#171817"/>
<path d="M93.2063 182.26C106.456 182.26 117.197 171.519 117.197 158.27C117.197 145.02 106.456 134.279 93.2063 134.279C79.9567 134.279 69.2158 145.02 69.2158 158.27C69.2158 171.519 79.9567 182.26 93.2063 182.26Z" fill="#161717"/>
<path d="M92.3796 183.233C105.683 183.233 116.467 172.449 116.467 159.146C116.467 145.843 105.683 135.058 92.3796 135.058C79.0764 135.058 68.292 145.843 68.292 159.146C68.292 172.449 79.0764 183.233 92.3796 183.233Z" fill="#161616"/>
</svg>
