<svg xmlns="http://www.w3.org/2000/svg" viewBox="0 0 88.48 14.1"><defs><style>.cls-1,.cls-2{fill:#b3b3b3;}.cls-2{fill-rule:evenodd;}</style></defs><g id="Livello_2" data-name="Livello 2"><g id="Layer_1" data-name="Layer 1"><g id="g6"><path id="path8" class="cls-1" d="M80.53,6.72a1.21,1.21,0,0,0,.57-1.17,1.18,1.18,0,0,0-.51-1.12,1.36,1.36,0,0,0-.71-.16h-.44V6.85A2.56,2.56,0,0,0,80.53,6.72ZM76.11,10A4,4,0,0,0,77,9.9a.83.83,0,0,0,.65-.85V5a.9.9,0,0,0-.72-.78,5.74,5.74,0,0,0-.75,0V3.93h4.46a3.85,3.85,0,0,1,1.36.21,1.34,1.34,0,0,1,1,1.38,1.08,1.08,0,0,1-.44,1A3.08,3.08,0,0,1,81.12,7c2.13-.13,1.83,1.71,2,2.13a1.18,1.18,0,0,0,1.29.85c.54,0,.11.21.11.21h-2c-2.38,0-.81-3-2.63-3h-.49v2a.85.85,0,0,0,.73.79,4.53,4.53,0,0,0,.71,0v.21H76.11Z"/><path id="path10" class="cls-1" d="M57.88,7.91,56.69,5.76,55.6,7.91Zm-4.8,2.25V9.94c.63,0,1.18,0,1.93-1.51L57.39,3.6l3.23,5.55a1.85,1.85,0,0,0,1.75.84v.17H57.09V9.94c.29,0,.72,0,.81,0,.33-.05.83-.35.6-.86l-.45-.84H55.47l-.32.62c-.34.71.16,1.05.68,1.1.12,0,.2,0,.44,0v.21Z"/><path id="path12" class="cls-1" d="M64,9.73a.55.55,0,0,0,.36.08,2.18,2.18,0,0,0,1.39-.44,2.67,2.67,0,0,0,.75-2.26,3.19,3.19,0,0,0-.6-2.23,2.09,2.09,0,0,0-1.57-.62.5.5,0,0,0-.33.07q-.09.06-.09.3v4.8C63.93,9.58,64,9.69,64,9.73ZM60.51,10c.34,0,.59-.18.73-.16.78.12.82-.24.82-.69V5a.86.86,0,0,0-.74-.84,4.32,4.32,0,0,0-.69,0V3.91h4.05a5.11,5.11,0,0,1,2.18.42,2.76,2.76,0,0,1,1.6,2.73,3.11,3.11,0,0,1-.29,1.34,2.87,2.87,0,0,1-1.63,1.49,5,5,0,0,1-1.76.27H60.53Z"/><path id="path14" class="cls-1" d="M20.64,10c.41,0,.76,0,.93-.07a.94.94,0,0,0,.78-.73l.73-4.23a.68.68,0,0,0-.5-.77,4.77,4.77,0,0,0-.91,0s0-.23,0-.23H25l1.24,3.48,1.29-3.48H30.8a1,1,0,0,1,0,.25,7,7,0,0,0-.85,0,.64.64,0,0,0-.55.75l.71,4.19a.91.91,0,0,0,.73.75,3.66,3.66,0,0,0,.86.07v.22H26.84V10a5.25,5.25,0,0,0,.91-.09c.46-.1.55-.45.49-.85l-.74-4L25.6,10.14l-.17.47L23.4,5l-.67,3.81c-.13.7.06,1,.4,1.11a5.37,5.37,0,0,0,.94.07v.21H20.64V10Z"/><path id="path16" class="cls-1" d="M38.18,9.94A2.6,2.6,0,0,0,39,9.88a1,1,0,0,0,.7-1.11V5c0-.18.09-.72-.57-.82-.11,0-.72,0-.92,0V3.91H41.5l3.09,3.45V5a.88.88,0,0,0-.7-.85,6,6,0,0,0-.82,0V3.91h3.42v.18c-.36,0-.71,0-.91.09a.86.86,0,0,0-.67.84v5.62L40,5.05V8.8a1,1,0,0,0,.7,1.09,2.9,2.9,0,0,0,.79.06v.21H38.19Z"/><path id="path18" class="cls-1" d="M83.58,10.05c.38,0,.65-.08.79-.09a.87.87,0,0,0,.76-.77V4.84a.83.83,0,0,0-.78-.72h-.7V3.9h4.83v.22c-.4,0-.58,0-.75,0a.78.78,0,0,0-.73.71V9.19a.81.81,0,0,0,.79.75,4.52,4.52,0,0,0,.67,0v.21h-4.9Z"/><path id="path20" class="cls-2" d="M37.23,4.62a3.52,3.52,0,0,0-2.39-.84,3.46,3.46,0,0,0-2.37.83A3.07,3.07,0,0,0,31.41,7a3.05,3.05,0,0,0,1,2.35,3.45,3.45,0,0,0,2.44.9,3.55,3.55,0,0,0,2.35-.81A3,3,0,0,0,38.27,7,3,3,0,0,0,37.23,4.62ZM34.84,10c-.83,0-1.51-1.29-1.51-2.9S34,4.16,34.84,4.16s1.52,1.29,1.52,2.89S35.68,10,34.84,10Z"/><path id="path22" class="cls-2" d="M75.12,4.62a3.52,3.52,0,0,0-2.39-.84,3.46,3.46,0,0,0-2.37.83A3.07,3.07,0,0,0,69.3,7a3.05,3.05,0,0,0,1,2.35,3.45,3.45,0,0,0,2.44.9,3.55,3.55,0,0,0,2.35-.81A3,3,0,0,0,76.16,7,3,3,0,0,0,75.12,4.62ZM72.73,10c-.83,0-1.51-1.29-1.51-2.9s.68-2.89,1.51-2.89,1.52,1.29,1.52,2.89S73.57,10,72.73,10Z"/><path id="path24" class="cls-1" d="M49.38,9.78a.59.59,0,0,0,.36.08,2.16,2.16,0,0,0,1.39-.44,2.67,2.67,0,0,0,.75-2.26,3.21,3.21,0,0,0-.6-2.23,2.09,2.09,0,0,0-1.57-.62.54.54,0,0,0-.33.07q-.09.06-.09.3v4.8C49.29,9.63,49.32,9.74,49.38,9.78ZM46,10c1-.06.55,0,.65,0a1,1,0,0,0,.83-1.09V5a.88.88,0,0,0-.75-.85c-.14,0-.45-.06-.8-.08V3.91h4.17a5.1,5.1,0,0,1,2.18.43,2.75,2.75,0,0,1,1.6,2.72,3.23,3.23,0,0,1-.29,1.34,2.75,2.75,0,0,1-.87,1.08,3.17,3.17,0,0,1-.76.42,5.44,5.44,0,0,1-1.78.26H46S46,9.94,46,10Z"/><path id="path26" class="cls-1" d="M8.57,3.47,7.32,5.64l2.88,5,1.25-2.17-2.88-5ZM0,13.56H.13A4.34,4.34,0,0,0,3.7,11.47l0,0L7.4,5.07,8.62,2.94,10.05.49,10.33,0,17,11.48a4.34,4.34,0,0,0,3.68,2.08h0v.22H11.1v-.22h.07a1.9,1.9,0,0,0,1.61-2.79l-1.2-2.08-2.84,4.9-.3.51-3-5.2-1,1.69a1.9,1.9,0,0,0,1.31,2.95l.12,0H6v.22H0v-.22Z"/></g></g></g></svg>